<svg xmlns="http://www.w3.org/2000/svg" viewBox="0 0 98 107.8"><defs><style>.cls-1{fill:#333;}.cls-2{fill:#f5bcc6;}</style></defs><g id="Wall"><path class="cls-1" d="M16.17,19.7c-16.39,0,19,48.9,31.81,71,2.35,4.07,15.63,23.64,20.73,13,2.68-5.56-11.44-23.32-13.27-29.83,8.69,0,17.33,11.88,25.93,10.09,6.07-1.25,5.76-6.6,2-10.87-4.19-4.74-13.1-5.79-18.74-7.83-7.76-2.82-7.36-4.57-7.37-12.6,0-6.79,1.52-18.19-.88-24.63-4-10.67-8.09.88-8.58,7.06-.53,6.72,1.46,15.07-.67,21.12C41.78,50.07,22.17,19.71,16.17,19.7Z"/><path class="cls-1" d="M16.17,19.2a5,5,0,0,0-3.42,1.12,4.63,4.63,0,0,0-1.3,3.1A13.84,13.84,0,0,0,12,28a43.31,43.31,0,0,0,2,5.87,136.2,136.2,0,0,0,7.41,14.61c3.15,5.56,6.5,11,9.88,16.44s6.67,10.54,10,15.82q2.18,3.45,4.28,6.93c1,1.67,2,3.38,3,5a53,53,0,0,0,9.55,11.5,12,12,0,0,0,5.67,3.14A4.77,4.77,0,0,0,68.64,105a5.24,5.24,0,0,0,.91-2.67,9.68,9.68,0,0,0-.44-2.93,37.08,37.08,0,0,0-3.28-7.47C63,86.65,59.58,81.74,57,76.4a16.3,16.3,0,0,1-1.06-2.6l-.48.64a15.08,15.08,0,0,1,6.81,2c2.33,1.23,4.51,2.72,6.75,4.11,4,2.49,8.73,5.23,13.55,3.65a5.41,5.41,0,0,0,4-4.26,8.66,8.66,0,0,0-2-6.15C81.36,69.57,76,68,71.06,66.7a75.14,75.14,0,0,1-7.22-2.2,11.4,11.4,0,0,1-4.76-2.79A6.73,6.73,0,0,1,57.8,57.6c-.14-2.28-.1-4.59,0-6.87.17-5.67.77-11.36.24-17a21.39,21.39,0,0,0-1.95-7.57c-.67-1.36-2-3.36-3.77-2.79-1.59.5-2.49,2.45-3.09,3.86a26,26,0,0,0-1.75,6.5c-.86,6,.59,12.11,0,18.16a17.8,17.8,0,0,1-.88,4.28l.84-.22c-1.65-1.92-3.11-4-4.59-6.06-2.22-3.07-4.42-6.15-6.66-9.21-2.4-3.29-4.83-6.55-7.36-9.74A89.21,89.21,0,0,0,22,23a23,23,0,0,0-3.22-2.77,5,5,0,0,0-2.59-1,.5.5,0,0,0,0,1,4.11,4.11,0,0,1,2,.82,18.81,18.81,0,0,1,2.7,2.26,80.43,80.43,0,0,1,6.7,7.59c4.88,6.09,9.38,12.47,14,18.78,1.7,2.36,3.37,4.77,5.26,7a.51.51,0,0,0,.84-.22,24.9,24.9,0,0,0,1-8.76c-.07-3.1-.37-6.19-.41-9.3a28.32,28.32,0,0,1,.75-7.11,17.33,17.33,0,0,1,2.25-5.69,2.85,2.85,0,0,1,1.48-1.28,1.67,1.67,0,0,1,1.56.8c1.55,1.84,2.2,4.53,2.56,6.85.84,5.41.32,11,.07,16.42-.11,2.43-.14,4.85-.12,7.28a14.77,14.77,0,0,0,.57,4.95A6.39,6.39,0,0,0,60,63.78a25,25,0,0,0,5.93,2.51c4.84,1.52,10.13,2.31,14.49,5.07A11.77,11.77,0,0,1,85,76.68c.72,1.76.86,3.89-.57,5.33-1.6,1.59-4.26,1.93-6.39,1.59A19.42,19.42,0,0,1,71.55,81c-4.2-2.43-8.15-5.71-12.88-7.06a12.61,12.61,0,0,0-3.23-.47.5.5,0,0,0-.48.63A28,28,0,0,0,57.75,80c1.46,2.57,3,5.1,4.52,7.65s3,5.17,4.28,7.88a16.78,16.78,0,0,1,2,6.4,4.67,4.67,0,0,1-2.67,4.24c-1.71.7-3.62-.24-5-1.17a27.78,27.78,0,0,1-5.49-5,65.43,65.43,0,0,1-4.6-5.88c-2.41-3.45-4.42-7.17-6.64-10.75-3.1-5-6.27-10-9.4-14.93-3.34-5.29-6.65-10.6-9.83-16-2.88-4.88-5.69-9.83-8.14-15C15,33.81,13.22,30,12.57,25.92a7.88,7.88,0,0,1,.11-3.65,2.83,2.83,0,0,1,1.8-1.83,5.09,5.09,0,0,1,1.69-.24A.5.5,0,0,0,16.17,19.2Z"/><path class="cls-2" d="M16.17.91C-.22.88,35.16,49.82,48,72,50.33,76,63.61,95.59,68.71,85c2.68-5.56-11.44-23.32-13.27-29.83,8.69,0,17.33,11.88,25.93,10.1,6.07-1.26,5.76-6.61,2-10.88-4.19-4.74-13.1-5.79-18.74-7.83-7.76-2.82-7.36-4.56-7.37-12.6,0-6.79,1.52-18.19-.88-24.63-4-10.67-8.09.88-8.58,7.06-.53,6.72,1.46,15.07-.67,21.12C41.78,31.28,22.17.92,16.17.91Z"/><path class="cls-1" d="M16.17.41a5,5,0,0,0-3.42,1.12,4.66,4.66,0,0,0-1.3,3.11A13.81,13.81,0,0,0,12,9.2a43.31,43.31,0,0,0,2,5.87,135.27,135.27,0,0,0,7.41,14.61c3.15,5.56,6.5,11,9.88,16.44S38,56.66,41.29,62q2.18,3.43,4.28,6.92c1,1.67,2,3.38,3,5a53,53,0,0,0,9.55,11.5,12,12,0,0,0,5.67,3.14,4.77,4.77,0,0,0,4.83-2.37,5.24,5.24,0,0,0,.91-2.67,9.73,9.73,0,0,0-.44-2.93,37.08,37.08,0,0,0-3.28-7.47C63,67.86,59.58,63,57,57.61A16.3,16.3,0,0,1,55.92,55l-.48.64a15.08,15.08,0,0,1,6.81,2c2.33,1.23,4.51,2.72,6.75,4.12,4,2.48,8.73,5.23,13.55,3.64a5.4,5.4,0,0,0,4-4.25,8.63,8.63,0,0,0-2-6.15c-3.18-4.27-8.58-5.8-13.48-7.14-2.43-.67-4.87-1.29-7.22-2.19a11.53,11.53,0,0,1-4.76-2.8,6.73,6.73,0,0,1-1.28-4.11c-.14-2.28-.1-4.59,0-6.87.17-5.67.77-11.36.24-17a21.39,21.39,0,0,0-1.95-7.57C55.39,6,54.11,4,52.29,4.56,50.7,5.06,49.8,7,49.2,8.42a26,26,0,0,0-1.75,6.5c-.86,6,.59,12.12,0,18.16a17.8,17.8,0,0,1-.88,4.28l.84-.22c-1.65-1.92-3.11-4-4.59-6.06-2.22-3.07-4.42-6.15-6.66-9.21-2.4-3.29-4.83-6.55-7.36-9.74A89.21,89.21,0,0,0,22,4.21a23,23,0,0,0-3.22-2.77,5.06,5.06,0,0,0-2.59-1,.5.5,0,0,0,0,1,4.21,4.21,0,0,1,2,.82,19.48,19.48,0,0,1,2.7,2.26,80.43,80.43,0,0,1,6.7,7.59c4.88,6.09,9.38,12.47,14,18.79,1.7,2.35,3.37,4.77,5.26,7a.51.51,0,0,0,.84-.22,24.9,24.9,0,0,0,1-8.76c-.07-3.1-.37-6.19-.41-9.3a28.32,28.32,0,0,1,.75-7.11,17.33,17.33,0,0,1,2.25-5.69,2.85,2.85,0,0,1,1.48-1.28,1.67,1.67,0,0,1,1.56.8c1.55,1.84,2.2,4.53,2.56,6.85.84,5.41.32,11,.07,16.43-.11,2.42-.14,4.84-.12,7.27a14.77,14.77,0,0,0,.57,4.95A6.39,6.39,0,0,0,60,45a24.59,24.59,0,0,0,5.93,2.51c4.84,1.52,10.13,2.32,14.49,5.07A11.74,11.74,0,0,1,85,57.9c.72,1.75.86,3.88-.57,5.32-1.6,1.59-4.26,1.93-6.39,1.59a19.42,19.42,0,0,1-6.53-2.63c-4.2-2.42-8.15-5.71-12.88-7a12.2,12.2,0,0,0-3.23-.48.5.5,0,0,0-.48.63,28,28,0,0,0,2.79,5.91c1.46,2.58,3,5.1,4.52,7.65s3,5.17,4.28,7.88a16.78,16.78,0,0,1,2,6.4,4.67,4.67,0,0,1-2.67,4.24c-1.71.7-3.62-.24-5-1.17a27.78,27.78,0,0,1-5.49-5,65.43,65.43,0,0,1-4.6-5.88c-2.41-3.45-4.42-7.17-6.64-10.75-3.1-5-6.27-9.95-9.4-14.93-3.34-5.29-6.65-10.6-9.83-16-2.88-4.89-5.69-9.84-8.14-15C15,15,13.22,11.16,12.57,7.14a7.92,7.92,0,0,1,.11-3.66,2.83,2.83,0,0,1,1.8-1.83,5.09,5.09,0,0,1,1.69-.24A.5.5,0,0,0,16.17.41Z"/></g></svg>