<svg xmlns="http://www.w3.org/2000/svg" viewBox="0 0 98 105.36"><defs><style>.cls-1{fill:#333;}.cls-2{fill:#f5bcc6;}</style></defs><g id="Wall"><path class="cls-1" d="M28.69,75.27c-23.92.6-29.07-48.38-7-55.37,9.4-3,23.54.74,29.41,9,3.28,4.61,4.88,10.73-2.53,9.47-5.08-.87-6.84-5.7-13.56-5.13C19.3,34.57,14.37,58.72,31.57,61.4,45.91,63.63,55.78,42,69,37.93c29.89-9.17,34.83,40.66,18.18,56.38-10.56,10-29.29,12.78-42,5.14-3.27-2-17.24-15-8-16.31,1.81-.27,8.09,5.15,9.94,5.91a23.79,23.79,0,0,0,13.95,1.41C72.61,88.43,81.51,78.9,78.87,67,72.23,37,50.13,74.74,28.69,75.27Z"/><path class="cls-1" d="M28.69,74.77a15.72,15.72,0,0,1-8.94-2.52,21.25,21.25,0,0,1-6.44-6.9A39,39,0,0,1,8.16,44.61c.11-6.73,1.74-14,6.27-19.26a16.62,16.62,0,0,1,7.87-5.1,27.84,27.84,0,0,1,15.09.35c4.89,1.38,9.77,3.94,12.94,8a15.09,15.09,0,0,1,2.92,5.7c.34,1.51.13,3.13-1.58,3.57-2.18.56-4.62-.29-6.47-1.42S41.74,34,39.72,33.29c-4-1.43-8.79-.24-12.2,2.12-5.64,3.91-8.87,11.8-6.5,18.44A12,12,0,0,0,28.14,61a15.37,15.37,0,0,0,12-.46c4.16-1.89,7.64-5.06,10.91-8.17,3.45-3.3,6.74-6.79,10.51-9.74a27.37,27.37,0,0,1,5.54-3.46,21.85,21.85,0,0,1,5.73-1.63,17.62,17.62,0,0,1,9.66,1.07C88.42,41.16,92,47,94,52.92a47.91,47.91,0,0,1,1.6,21.77c-1,6.62-3.28,13.56-8,18.5a32.62,32.62,0,0,1-13,8,38.75,38.75,0,0,1-16.41,2,33,33,0,0,1-8-1.84,22.35,22.35,0,0,1-5.57-2.84,38.84,38.84,0,0,1-7.32-7.17,13.78,13.78,0,0,1-2.49-4.2c-.34-1-.38-2.22.65-2.87a3.65,3.65,0,0,1,2-.58,5.4,5.4,0,0,1,2,.89C41.29,85.62,43,87,44.8,88.2a12.41,12.41,0,0,0,2,1.23,21.82,21.82,0,0,0,4.47,1.45A25.84,25.84,0,0,0,61,91a24.36,24.36,0,0,0,13.65-7,18.64,18.64,0,0,0,5.19-13.42A26.28,26.28,0,0,0,78.3,63a17,17,0,0,0-2.44-4.91A7.45,7.45,0,0,0,69,55c-3.08.29-6,1.86-8.57,3.43C53.37,62.67,47,68.13,39.56,71.76a27.07,27.07,0,0,1-10.87,3c-.64,0-.64,1,0,1a28.15,28.15,0,0,0,11.5-3.21,86.7,86.7,0,0,0,11-6.72c3.32-2.29,6.58-4.69,10.06-6.75,2.54-1.51,5.46-3.12,8.5-3.15,2.85,0,4.89,1.81,6.2,4.19a24.55,24.55,0,0,1,2.23,6.16,19.07,19.07,0,0,1,.35,8.06C76.38,85.66,63.64,91.76,53,90.18a17.27,17.27,0,0,1-7.15-2.49c-1.83-1.24-3.57-2.6-5.44-3.76A10,10,0,0,0,38,82.73a3.56,3.56,0,0,0-2.11.19,3.08,3.08,0,0,0-2.29,2.72,7.28,7.28,0,0,0,1.35,4,28.65,28.65,0,0,0,3.43,4.41,31.24,31.24,0,0,0,7.47,6.34c9.7,5.35,22,4.94,32,.58A31,31,0,0,0,89.3,92.77,30.7,30.7,0,0,0,94.23,84a48.9,48.9,0,0,0,2.63-22c-.68-6.82-2.71-13.94-7.22-19.26a18.38,18.38,0,0,0-7.48-5.38,19,19,0,0,0-10-.76,22.62,22.62,0,0,0-5.85,1.78A29.34,29.34,0,0,0,60.74,42c-3.79,3-7.12,6.53-10.62,9.85C46.84,55,43.29,58.23,39,60a14.15,14.15,0,0,1-12-.52,11,11,0,0,1-5.64-8.06,15.43,15.43,0,0,1,2-10,15.24,15.24,0,0,1,8.29-7,12.49,12.49,0,0,1,6.9-.45c2.14.55,3.84,1.9,5.66,3.07a11.07,11.07,0,0,0,6.54,2c1.73-.09,3.29-.93,3.57-2.76s-.58-3.9-1.46-5.53a19.26,19.26,0,0,0-4.36-5.43,29.4,29.4,0,0,0-14.24-6.43c-4.64-.8-9.71-.77-14.11,1.07-6.3,2.63-10,8.78-11.74,15.15a42.41,42.41,0,0,0,.29,22C10.5,63.45,14,70,19.83,73.48a16.6,16.6,0,0,0,8.86,2.29A.5.5,0,0,0,28.69,74.77Z"/><path class="cls-2" d="M22.42,57.94c-23.92.59-29.07-48.38-7-55.37,9.4-3,23.54.74,29.41,9,3.28,4.62,4.88,10.74-2.53,9.47-5.08-.86-6.84-5.69-13.56-5.12C13,17.24,8.1,41.38,25.3,44.06,39.64,46.29,49.51,24.65,62.72,20.6,92.61,11.42,97.55,61.26,80.9,77c-10.56,10-29.29,12.78-42,5.14-3.27-2-17.24-15-8-16.31,1.81-.26,8.09,5.16,9.93,5.92a23.83,23.83,0,0,0,14,1.4c11.53-2,20.43-11.56,17.79-23.46C66,19.69,43.86,57.4,22.42,57.94Z"/><path class="cls-1" d="M22.42,57.44a15.78,15.78,0,0,1-9-2.52A21.33,21.33,0,0,1,7,48,39.06,39.06,0,0,1,1.89,27.28C2,20.54,3.63,13.22,8.16,8A16.55,16.55,0,0,1,16,2.92a27.7,27.7,0,0,1,15.08.34c4.89,1.39,9.78,4,13,8A15.23,15.23,0,0,1,47,17c.34,1.52.13,3.13-1.58,3.57-2.18.56-4.62-.29-6.47-1.41S35.47,16.68,33.45,16c-4-1.43-8.79-.24-12.2,2.12-5.64,3.92-8.88,11.8-6.5,18.45a12.05,12.05,0,0,0,7.12,7.16,15.33,15.33,0,0,0,12-.47C38,41.33,41.52,38.16,44.79,35c3.45-3.29,6.74-6.79,10.51-9.73a27.86,27.86,0,0,1,5.54-3.47,21.83,21.83,0,0,1,5.73-1.62,17.71,17.71,0,0,1,9.66,1.06c5.92,2.55,9.54,8.41,11.47,14.31a47.89,47.89,0,0,1,1.6,21.77c-1,6.61-3.28,13.55-8,18.49a32.62,32.62,0,0,1-13,8,38.6,38.6,0,0,1-16.41,2,32.52,32.52,0,0,1-8-1.83,22.93,22.93,0,0,1-5.58-2.84A39.14,39.14,0,0,1,31,73.94a13.66,13.66,0,0,1-2.49-4.2c-.34-1-.38-2.21.65-2.87a3.61,3.61,0,0,1,2-.57,5.2,5.2,0,0,1,2,.88c1.87,1.11,3.59,2.45,5.37,3.69a14.77,14.77,0,0,0,2,1.23A21.2,21.2,0,0,0,45,73.54a25.64,25.64,0,0,0,9.76.1,24.35,24.35,0,0,0,13.65-7,18.65,18.65,0,0,0,5.19-13.43A26.28,26.28,0,0,0,72,45.69a17.34,17.34,0,0,0-2.44-4.91,7.48,7.48,0,0,0-6.83-3.14c-3.08.3-6,1.86-8.57,3.43-7.09,4.27-13.42,9.73-20.9,13.35a26.92,26.92,0,0,1-10.87,3,.5.5,0,0,0,0,1,28.51,28.51,0,0,0,11.5-3.21,86.77,86.77,0,0,0,11-6.73c3.32-2.29,6.58-4.68,10.05-6.74,2.55-1.51,5.47-3.13,8.51-3.16,2.85,0,4.89,1.81,6.2,4.2A24.41,24.41,0,0,1,71.93,49,19.06,19.06,0,0,1,72.28,57C70.11,68.33,57.37,74.43,46.69,72.85a17.15,17.15,0,0,1-7.15-2.5c-1.83-1.23-3.57-2.59-5.44-3.76a9.64,9.64,0,0,0-2.38-1.19,3.56,3.56,0,0,0-2.11.19,3.1,3.1,0,0,0-2.3,2.72,7.42,7.42,0,0,0,1.36,4,27.52,27.52,0,0,0,3.43,4.4,30.83,30.83,0,0,0,7.47,6.34c9.7,5.35,22,4.94,32,.59A31,31,0,0,0,83,75.43,30.5,30.5,0,0,0,88,66.66a49,49,0,0,0,2.63-21.94c-.69-6.83-2.71-13.95-7.22-19.27a18.47,18.47,0,0,0-7.48-5.38,19.24,19.24,0,0,0-10-.76,22.5,22.5,0,0,0-5.85,1.78,29.83,29.83,0,0,0-5.62,3.6c-3.8,3-7.12,6.54-10.62,9.86-3.28,3.12-6.83,6.35-11.1,8.07a14.15,14.15,0,0,1-12-.53A11,11,0,0,1,15.15,34a15.4,15.4,0,0,1,2-10,15.2,15.2,0,0,1,8.29-7,12.4,12.4,0,0,1,6.9-.45c2.14.55,3.84,1.9,5.66,3.06a11,11,0,0,0,6.54,2c1.73-.09,3.29-.93,3.57-2.76S47.5,15,46.62,13.4A19.44,19.44,0,0,0,42.26,8,29.49,29.49,0,0,0,28,1.53C23.38.73,18.31.77,13.91,2.61c-6.3,2.63-10,8.78-11.74,15.14a42.41,42.41,0,0,0,.29,22c1.77,6.39,5.22,13,11.1,16.43a16.78,16.78,0,0,0,8.86,2.29C23.06,58.42,23.07,57.42,22.42,57.44Z"/></g></svg>