<svg xmlns="http://www.w3.org/2000/svg" viewBox="0 0 98 65.17"><defs><style>.cls-1{fill:#333;}.cls-2{fill:#f5bcc6;}</style></defs><g id="Wall"><path class="cls-1" d="M70.42,27.83c-4.7-7.66-18.72-17-34.11-7.42C24.12,28,27,46.27,32,54.44,37.66,63.87,49,66.55,59,63.16,72.79,58.42,78.07,40.3,70.42,27.83ZM54.79,54.11C41.38,58,33.56,38.17,41.38,29.11,52.39,16.37,79.19,47,54.79,54.11Z"/><path class="cls-1" d="M70.85,27.57a25.48,25.48,0,0,0-10.51-9.22,24.09,24.09,0,0,0-16.69-1.71C38.23,18.07,33,21.17,30.1,26.11a24.42,24.42,0,0,0-2.89,13.18A34.87,34.87,0,0,0,30.12,52a21.64,21.64,0,0,0,9.75,10.52c9.09,4.69,21.3,2.81,28.19-4.84A26,26,0,0,0,72.49,30.8a23.33,23.33,0,0,0-1.64-3.23.5.5,0,0,0-.86.51,25,25,0,0,1-.59,26.25,20.83,20.83,0,0,1-10.58,8.34,24.42,24.42,0,0,1-15,.38,20.36,20.36,0,0,1-11.62-9.24,31.16,31.16,0,0,1-3.64-11.13,27.41,27.41,0,0,1,1-13,17.48,17.48,0,0,1,3.22-5.6,20.07,20.07,0,0,1,6.53-4.75,23.24,23.24,0,0,1,17.11-1.47,25.64,25.64,0,0,1,11.87,7.86A22.16,22.16,0,0,1,70,28.08C70.32,28.62,71.19,28.12,70.85,27.57Z"/><path class="cls-1" d="M54.65,53.63a10.75,10.75,0,0,1-9-1.26,15.14,15.14,0,0,1-5.54-7.11C38,39.84,38,32.38,42.86,28.35c3.72-3.1,8.83-1.7,12.49.71C59.46,31.77,63,36.15,64,41a9.87,9.87,0,0,1-.74,6.57,11.84,11.84,0,0,1-6.1,5.15,21.78,21.78,0,0,1-2.5.88.5.5,0,0,0,.27,1c3.06-.89,6.15-2.36,8.17-4.92a10.17,10.17,0,0,0,2.13-6.93c-.31-5.34-3.82-10.29-7.92-13.5-3.77-2.94-9.2-5.11-13.75-2.57-5.73,3.21-6.66,11.07-5.06,16.82,1.72,6.23,6.86,12.16,13.85,11.58a13.33,13.33,0,0,0,2.58-.48A.5.5,0,0,0,54.65,53.63Z"/><path class="cls-2" d="M66.79,12.1c-4.69-7.66-18.71-17-34.1-7.41-12.19,7.59-9.32,25.85-4.37,34,5.72,9.43,17.1,12.11,27,8.72C69.17,42.69,74.45,24.57,66.79,12.1ZM51.16,38.38c-13.4,3.89-21.22-15.94-13.4-25C48.77.64,75.57,31.31,51.16,38.38Z"/><path class="cls-1" d="M67.23,11.84A25.48,25.48,0,0,0,56.72,2.62,24.09,24.09,0,0,0,40,.91c-5.42,1.43-10.68,4.53-13.55,9.47a24.35,24.35,0,0,0-2.89,13.18A34.67,34.67,0,0,0,26.5,36.28,21.55,21.55,0,0,0,36.25,46.8c9.09,4.69,21.3,2.81,28.19-4.84a26,26,0,0,0,4.43-26.89,24.49,24.49,0,0,0-1.64-3.23c-.34-.54-1.2,0-.87.51a25,25,0,0,1-.58,26.25A20.83,20.83,0,0,1,55.2,46.94a24.42,24.42,0,0,1-15.05.38,20.33,20.33,0,0,1-11.62-9.24A31.16,31.16,0,0,1,24.89,27a27.16,27.16,0,0,1,1-13,17.3,17.3,0,0,1,3.22-5.6A20.07,20.07,0,0,1,35.68,3.6a23.27,23.27,0,0,1,17.1-1.47A25.56,25.56,0,0,1,64.65,10a18.8,18.8,0,0,1,1.71,2.35C66.7,12.9,67.57,12.39,67.23,11.84Z"/><path class="cls-1" d="M51,37.9a10.78,10.78,0,0,1-9-1.26,15.08,15.08,0,0,1-5.53-7.11c-2.17-5.42-2.11-12.88,2.72-16.91,3.72-3.1,8.83-1.69,12.49.71,4.11,2.71,7.61,7.09,8.63,12a9.86,9.86,0,0,1-.73,6.57A11.84,11.84,0,0,1,53.53,37a21.78,21.78,0,0,1-2.5.88.5.5,0,0,0,.27,1c3.06-.9,6.15-2.37,8.17-4.93A10.17,10.17,0,0,0,61.59,27c-.31-5.34-3.81-10.29-7.91-13.5-3.77-2.94-9.21-5.11-13.75-2.57C34.2,14.15,33.27,22,34.87,27.76,36.59,34,41.73,39.92,48.72,39.34a14.27,14.27,0,0,0,2.58-.47A.5.5,0,0,0,51,37.9Z"/></g></svg>