<svg xmlns="http://www.w3.org/2000/svg" viewBox="0 0 98 84.74"><defs><style>.cls-1{fill:#333;}.cls-2{fill:#f5bcc6;}</style></defs><g id="Wall"><path class="cls-1" d="M66.39,14.9c-6.6.65-18.64,26.28-22.47,32.12-7.23,11-19,20.16-21.74,33.51C20.23,90,37,76.13,40.69,71.14c6.05-8.13,5.6-9.91,15.08-6.9C99.75,78.21,84.23,13.13,66.39,14.9ZM70.59,51c-4,8.48-9.8,2.88-15.81,1.31,2.35-6.5,7.95-15,13-19.43C72.18,35.8,72.9,46.08,70.59,51Z"/><path class="cls-1" d="M66.39,14.4A6.26,6.26,0,0,0,63.17,16a22.74,22.74,0,0,0-3.41,3.66,95.61,95.61,0,0,0-7.21,11C50.39,34.41,48.34,38.2,46.26,42c-.73,1.33-1.47,2.67-2.26,4a58.8,58.8,0,0,1-4.29,6C36,56.6,32,61,28.55,65.82a49,49,0,0,0-4.48,7.54,27.18,27.18,0,0,0-2.5,7.79c-.13,1,0,2.34,1,2.87s2.38,0,3.37-.36c3.48-1.46,6.57-4,9.39-6.44a55.08,55.08,0,0,0,4.08-3.86,43.74,43.74,0,0,0,3.61-4.62,20.79,20.79,0,0,1,3.6-4.42,5.07,5.07,0,0,1,4-.87,54.83,54.83,0,0,1,7,1.86,39.92,39.92,0,0,0,5.95,1.19,22.92,22.92,0,0,0,9.36-.62A16,16,0,0,0,83.26,55.61c1.88-5.24,1.85-11.06,1-16.5a44.61,44.61,0,0,0-5.62-15.94c-2.15-3.6-5.29-7.52-9.57-8.56a8,8,0,0,0-2.67-.21c-.63.06-.64,1.06,0,1C70.3,15,73.62,18,75.9,20.91a38.88,38.88,0,0,1,6.55,14.37,38.59,38.59,0,0,1,.83,16.42c-.9,4.74-3.19,9.33-7.47,11.84-5.57,3.28-12.61,2.34-18.53.64a41.33,41.33,0,0,0-6.73-1.74,5.87,5.87,0,0,0-4.15.83A15.1,15.1,0,0,0,43,67.11a59.92,59.92,0,0,1-3.72,5,54.3,54.3,0,0,1-8.41,7.48,30.23,30.23,0,0,1-4.55,2.86c-.87.43-2.21,1.07-3.14.77a.84.84,0,0,1-.57-.63,3.83,3.83,0,0,1,0-1.78A30.8,30.8,0,0,1,25.5,72.7c2.64-5.2,6.37-9.73,10.09-14.18,3.26-3.9,6.69-7.79,9.33-12.16,1.8-3,3.41-6.09,5.1-9.14,2.15-3.91,4.35-7.8,6.76-11.56,2-3.09,4.09-6.34,6.88-8.76a5.61,5.61,0,0,1,2.73-1.5C67,15.33,67,14.33,66.39,14.4Z"/><path class="cls-1" d="M70.16,50.71A7.91,7.91,0,0,1,67,54.59a5.41,5.41,0,0,1-3.7.25c-2.89-.67-5.47-2.28-8.34-3l.35.61A49.54,49.54,0,0,1,60.7,42a44.79,44.79,0,0,1,7.46-8.84l-.61.08c1.87,1.29,2.77,3.67,3.27,5.8A21.48,21.48,0,0,1,71.18,47a13.25,13.25,0,0,1-1,3.72c-.27.58.6,1.09.87.51a17.62,17.62,0,0,0,1.34-7.73,18.69,18.69,0,0,0-1.81-8.1,8.11,8.11,0,0,0-2.5-3,.52.52,0,0,0-.61.08,45.8,45.8,0,0,0-7.61,9,50,50,0,0,0-5.54,10.6.51.51,0,0,0,.35.62c2.45.66,4.68,1.88,7.08,2.69,2.07.69,4.39,1,6.29-.34a9.6,9.6,0,0,0,3-3.89C71.3,50.64,70.44,50.13,70.16,50.71Z"/><path class="cls-2" d="M58.07,1c-6.6.65-18.64,26.28-22.47,32.12-7.23,11-19,20.16-21.74,33.51-1.95,9.41,14.79-4.4,18.51-9.39,6.05-8.13,5.6-9.92,15.08-6.9C91.43,64.35,75.91-.73,58.07,1Zm4.2,36.06c-4,8.49-9.8,2.89-15.81,1.31,2.34-6.5,7.95-15,13-19.43C63.86,21.94,64.57,32.21,62.27,37.1Z"/><path class="cls-1" d="M58.07.54a6.24,6.24,0,0,0-3.23,1.61,23.58,23.58,0,0,0-3.4,3.66,95.16,95.16,0,0,0-7.21,11c-2.16,3.73-4.21,7.52-6.29,11.29-.73,1.34-1.47,2.67-2.26,4a60.39,60.39,0,0,1-4.29,6c-3.68,4.66-7.71,9-11.16,13.88a47.72,47.72,0,0,0-4.48,7.54,27,27,0,0,0-2.5,7.78c-.13,1,0,2.35,1,2.88s2.39,0,3.38-.37c3.47-1.45,6.57-4,9.39-6.43a53,53,0,0,0,4.07-3.86,42.58,42.58,0,0,0,3.61-4.63,21.67,21.67,0,0,1,3.61-4.42,5.1,5.1,0,0,1,4-.87,53.26,53.26,0,0,1,7,1.87,41.37,41.37,0,0,0,5.94,1.19A22.79,22.79,0,0,0,64.62,52,16,16,0,0,0,74.94,41.74c1.88-5.23,1.85-11.06,1-16.49A44.66,44.66,0,0,0,70.31,9.3C68.15,5.71,65,1.79,60.74.74a8,8,0,0,0-2.67-.2c-.63.06-.64,1.06,0,1C62,1.16,65.3,4.09,67.58,7.05a39,39,0,0,1,6.55,14.37A38.59,38.59,0,0,1,75,37.84c-.91,4.73-3.19,9.33-7.47,11.84C61.92,53,54.88,52,49,50.31a43.48,43.48,0,0,0-6.73-1.74,6,6,0,0,0-4.15.83,15.06,15.06,0,0,0-3.41,3.84,56.5,56.5,0,0,1-3.73,5,54.8,54.8,0,0,1-8.4,7.48A31,31,0,0,1,18,68.54c-.87.43-2.21,1.08-3.14.78a.85.85,0,0,1-.57-.63,3.83,3.83,0,0,1,0-1.78,31,31,0,0,1,2.86-8.08c2.64-5.19,6.37-9.72,10.09-14.17,3.26-3.91,6.69-7.79,9.33-12.17,1.8-3,3.41-6.09,5.09-9.14,2.16-3.9,4.36-7.8,6.77-11.55,2-3.09,4.09-6.35,6.88-8.77a5.59,5.59,0,0,1,2.73-1.49C58.71,1.47,58.71.47,58.07.54Z"/><path class="cls-1" d="M61.84,36.85a7.9,7.9,0,0,1-3.22,3.87,5.38,5.38,0,0,1-3.69.26c-2.89-.67-5.47-2.28-8.34-3l.35.62a49.54,49.54,0,0,1,5.44-10.37,44.79,44.79,0,0,1,7.46-8.84l-.61.07c1.87,1.3,2.77,3.68,3.27,5.8a21.55,21.55,0,0,1,.36,7.92,13.34,13.34,0,0,1-1,3.72c-.27.58.6,1.09.87.51a17.64,17.64,0,0,0,1.34-7.74,18.59,18.59,0,0,0-1.82-8.1,8,8,0,0,0-2.49-3,.52.52,0,0,0-.61.08,45.8,45.8,0,0,0-7.61,9.05A49.54,49.54,0,0,0,46,38.28a.51.51,0,0,0,.35.62c2.45.65,4.68,1.88,7.08,2.68,2.07.69,4.39,1,6.29-.34a9.57,9.57,0,0,0,3-3.88C63,36.78,62.12,36.27,61.84,36.85Z"/></g></svg>