<svg xmlns="http://www.w3.org/2000/svg" viewBox="0 0 98 81.98"><defs><style>.cls-1{fill:#333;}.cls-2{fill:#f5bcc6;}</style></defs><g id="Wall"><path class="cls-1" d="M64,51.47c-7.29,1.8-1.56,21.1-16.26,19.09-13-1.77-14.8-9.38-11.14-11.38,9.82-5.35,34.12-17.54,25.2-30.72-12-17.76-33.14-11.7-39.28,7.7-1.36,4.29-2.91,21-.38,27.46C27.26,76.87,39.1,82.5,52.91,81,61,80.11,66,76,68.69,68.24,70.17,64,73.07,49.22,64,51.47ZM43.47,29.62c6.19.95,13.45,6.7,7,11.62C47.11,43.8,37.3,50.58,32.93,52.5,30.91,49.35,35,28.31,43.47,29.62Z"/><path class="cls-1" d="M63.84,51c-2.73.7-3.76,3.61-4.41,6-.81,3-1.22,6.26-2.71,9.06a7.61,7.61,0,0,1-2.95,3.18,9.2,9.2,0,0,1-5.32.87,22.82,22.82,0,0,1-8.18-2.25,10.11,10.11,0,0,1-4.11-3.47,4,4,0,0,1-.59-3.35c.41-1.22,1.62-1.67,2.67-2.23,3.86-2.09,7.7-4.2,11.38-6.6a47.2,47.2,0,0,0,10.74-9c2.46-3,4.35-6.64,3.7-10.59a13.71,13.71,0,0,0-2.93-6,26.66,26.66,0,0,0-5.46-5.41A19.64,19.64,0,0,0,43,17.44c-9.66.54-17.1,8.12-20.4,16.77C21.2,38,20.82,42.09,20.52,46.09a58.49,58.49,0,0,0,.34,14.78,22,22,0,0,0,2.39,6.44A27.58,27.58,0,0,0,28,73.74a26.74,26.74,0,0,0,13,7.15,33.57,33.57,0,0,0,8,.84,29.74,29.74,0,0,0,8.07-1,17.43,17.43,0,0,0,10.77-9.16,30.15,30.15,0,0,0,2.86-10.65c.28-3,.41-7.32-2.28-9.31A5.45,5.45,0,0,0,63.84,51c-.63.15-.36,1.11.26,1C72.16,50,69.75,62.87,68.55,67s-3.72,8.47-7.61,10.87c-4.43,2.75-10.12,3.12-15.2,2.71a27.72,27.72,0,0,1-14-5A26.52,26.52,0,0,1,22.52,63.3a22.39,22.39,0,0,1-1.09-5.85A64.56,64.56,0,0,1,21.31,50a65.88,65.88,0,0,1,1.38-12.61,27.13,27.13,0,0,1,6.64-12.16,21.38,21.38,0,0,1,11.18-6.43,18.27,18.27,0,0,1,12.38,2,23,23,0,0,1,5.72,4.54,18.28,18.28,0,0,1,4.07,6.06c1.29,3.71-.11,7.4-2.36,10.41-2.71,3.63-6.46,6.48-10.19,9s-7.5,4.62-11.37,6.72c-1.17.63-2.69,1.17-3.55,2.25a4,4,0,0,0-.72,3.2c.62,3.57,4.45,5.74,7.53,6.85A22.93,22.93,0,0,0,50,71.21a8.94,8.94,0,0,0,4.78-1.34c2.6-1.72,3.72-4.8,4.48-7.69.39-1.51.71-3,1.1-4.55a13.91,13.91,0,0,1,1.4-3.77A4,4,0,0,1,64.1,52,.5.5,0,0,0,63.84,51Z"/><path class="cls-1" d="M43.34,30.1a13.88,13.88,0,0,1,7.45,3.57,5.38,5.38,0,0,1,1.68,3A4.14,4.14,0,0,1,51.17,40a19.06,19.06,0,0,1-2.49,2c-.91.66-1.83,1.31-2.75,1.95-2.19,1.52-4.41,3-6.67,4.43a50.88,50.88,0,0,1-6.58,3.74l.68.17a6.65,6.65,0,0,1-.43-3.35,29.89,29.89,0,0,1,.78-5.66c.87-3.88,2.23-8.21,5-11.16a5.37,5.37,0,0,1,4.6-2c.63.09.9-.87.26-1-4-.59-6.75,3.14-8.31,6.34A34.37,34.37,0,0,0,32,48.26c-.09,1.38-.24,3.25.54,4.49a.51.51,0,0,0,.68.18,51.65,51.65,0,0,0,6.24-3.51q3.66-2.31,7.2-4.79c1-.67,1.91-1.34,2.85-2a14.74,14.74,0,0,0,2.76-2.34,4.93,4.93,0,0,0,1.25-3.44,5.75,5.75,0,0,0-1.37-3.17,13.93,13.93,0,0,0-8.51-4.51C43,29,42.7,30,43.34,30.1Z"/><path class="cls-2" d="M70.88,34.31c-7.29,1.8-1.55,21.11-16.26,19.1C41.66,51.63,39.83,44,43.49,42,53.3,36.67,77.6,24.48,68.68,11.3,56.66-6.46,35.54-.39,29.4,19,28,23.3,26.49,40,29,46.47c5.16,13.24,17,18.88,30.8,17.37C68,63,72.9,58.8,75.61,51.08,77.09,46.86,80,32.07,70.88,34.31ZM50.38,12.46c6.19,1,13.45,6.7,7,11.62C54,26.64,44.22,33.42,39.84,35.34,37.82,32.19,41.88,11.15,50.38,12.46Z"/><path class="cls-1" d="M70.75,33.83c-2.73.7-3.75,3.61-4.41,6.05-.81,3-1.21,6.27-2.7,9.06a7.61,7.61,0,0,1-3,3.18,9.15,9.15,0,0,1-5.33.87,22.83,22.83,0,0,1-8.17-2.25,10.07,10.07,0,0,1-4.12-3.47,4.07,4.07,0,0,1-.59-3.35c.41-1.21,1.63-1.67,2.67-2.23,3.86-2.08,7.71-4.2,11.38-6.59a47.24,47.24,0,0,0,10.74-9c2.46-3,4.35-6.64,3.7-10.59a13.51,13.51,0,0,0-2.93-6,26.66,26.66,0,0,0-5.45-5.42A19.79,19.79,0,0,0,50,.28c-9.66.54-17.1,8.13-20.4,16.77-1.44,3.78-1.82,7.88-2.12,11.88a59,59,0,0,0,.34,14.78,22.32,22.32,0,0,0,2.4,6.45,27.69,27.69,0,0,0,4.7,6.42,26.85,26.85,0,0,0,13.05,7.16,34.14,34.14,0,0,0,8,.83,29.64,29.64,0,0,0,8.07-1,17.43,17.43,0,0,0,10.77-9.16,30.11,30.11,0,0,0,2.87-10.65c.27-3,.41-7.31-2.28-9.31a5.47,5.47,0,0,0-4.6-.59c-.62.15-.36,1.11.27,1,8-1.92,5.64,10.93,4.44,15.1s-3.71,8.46-7.6,10.87c-4.44,2.74-10.13,3.12-15.21,2.7a27.78,27.78,0,0,1-14-5,26.66,26.66,0,0,1-9.19-12.35,22.31,22.31,0,0,1-1.09-5.85,66.83,66.83,0,0,1-.12-7.49A66,66,0,0,1,29.6,20.19,27.32,27.32,0,0,1,36.24,8,21.41,21.41,0,0,1,47.43,1.6a18.24,18.24,0,0,1,12.37,2A22.87,22.87,0,0,1,65.52,8.1a18.48,18.48,0,0,1,4.07,6.06c1.3,3.71-.1,7.4-2.36,10.41-2.71,3.63-6.45,6.48-10.18,9s-7.5,4.61-11.37,6.71c-1.18.64-2.7,1.18-3.55,2.25a4,4,0,0,0-.73,3.2c.62,3.57,4.45,5.75,7.54,6.86a23.06,23.06,0,0,0,7.92,1.47,8.86,8.86,0,0,0,4.78-1.34c2.6-1.72,3.72-4.8,4.48-7.68.4-1.51.71-3.05,1.1-4.56a14.05,14.05,0,0,1,1.41-3.77A4,4,0,0,1,71,34.79.5.5,0,0,0,70.75,33.83Z"/><path class="cls-1" d="M50.25,12.94a13.75,13.75,0,0,1,7.45,3.58,5.29,5.29,0,0,1,1.68,3,4.1,4.1,0,0,1-1.3,3.27,18.41,18.41,0,0,1-2.49,2c-.91.66-1.83,1.31-2.75,1.95-2.19,1.52-4.41,3-6.66,4.44a52.84,52.84,0,0,1-6.59,3.73l.68.18a6.79,6.79,0,0,1-.43-3.36,31.73,31.73,0,0,1,.78-5.66c.87-3.88,2.24-8.21,5-11.16a5.39,5.39,0,0,1,4.6-2c.63.1.9-.87.27-1-4-.59-6.75,3.14-8.31,6.35A34.52,34.52,0,0,0,38.87,31.1c-.08,1.38-.23,3.25.54,4.49a.51.51,0,0,0,.68.18,48.4,48.4,0,0,0,6.24-3.51c2.44-1.53,4.84-3.14,7.2-4.79,1-.67,1.91-1.34,2.86-2a14.32,14.32,0,0,0,2.75-2.34,4.9,4.9,0,0,0,1.25-3.44A5.74,5.74,0,0,0,59,16.49,14,14,0,0,0,50.52,12C49.89,11.88,49.62,12.84,50.25,12.94Z"/></g></svg>